<svg width="14" height="11" viewBox="0 0 14 11" fill="none" xmlns="http://www.w3.org/2000/svg">
<path d="M1.33333 10.6667C0.966668 10.6667 0.652668 10.536 0.391334 10.2747C0.130001 10.0133 -0.000443313 9.69956 1.13186e-06 9.33333V1.33333C1.13186e-06 0.966668 0.130668 0.652668 0.392001 0.391334C0.653334 0.130001 0.967112 -0.000443313 1.33333 1.13186e-06H12C12.3667 1.13186e-06 12.6807 0.130668 12.942 0.392001C13.2033 0.653334 13.3338 0.967112 13.3333 1.33333V9.33333C13.3333 9.7 13.2027 10.014 12.9413 10.2753C12.68 10.5367 12.3662 10.6671 12 10.6667H1.33333ZM6.66667 5.88333C6.72222 5.88333 6.78067 5.87489 6.842 5.858C6.90333 5.84111 6.96156 5.81622 7.01667 5.78333L11.7333 2.83333C11.8222 2.77778 11.8889 2.70822 11.9333 2.62467C11.9778 2.54111 12 2.44956 12 2.35C12 2.12778 11.9056 1.96111 11.7167 1.85C11.5278 1.73889 11.3333 1.74445 11.1333 1.86667L6.66667 4.66667L2.2 1.86667C2 1.74445 1.80556 1.74178 1.61667 1.85867C1.42778 1.97556 1.33333 2.13933 1.33333 2.35C1.33333 2.46111 1.35556 2.55845 1.4 2.642C1.44445 2.72556 1.51111 2.78933 1.6 2.83333L6.31667 5.78333C6.37222 5.81667 6.43067 5.84178 6.492 5.85867C6.55333 5.87556 6.61156 5.88378 6.66667 5.88333Z" fill="#47A15E"/>
</svg>
