<svg width="16" height="16" viewBox="0 0 16 16" fill="none" xmlns="http://www.w3.org/2000/svg">
<g id="Iconsax/Bold/facebook">
<path id="Vector" d="M14.6667 10.793C14.6667 13.2197 13.22 14.6663 10.7934 14.6663H10C9.63337 14.6663 9.33337 14.3663 9.33337 13.9997V10.153C9.33337 9.97301 9.48004 9.81967 9.66004 9.81967L10.8334 9.79967C10.9267 9.79301 11.0067 9.72634 11.0267 9.63301L11.26 8.35967C11.2646 8.33081 11.2628 8.30131 11.2548 8.27321C11.2468 8.2451 11.2329 8.21906 11.2139 8.19688C11.1948 8.1747 11.1712 8.15691 11.1447 8.14473C11.1181 8.13255 11.0893 8.12628 11.06 8.12634L9.64004 8.14634C9.45337 8.14634 9.30671 7.99967 9.30004 7.81967L9.27337 6.18634C9.27337 6.07967 9.36004 5.98634 9.47337 5.98634L11.0734 5.95967C11.1867 5.95967 11.2734 5.87301 11.2734 5.75967L11.2467 4.15967C11.2467 4.04634 11.16 3.95967 11.0467 3.95967L9.24671 3.98634C8.98395 3.99033 8.72456 4.04614 8.48341 4.15056C8.24225 4.25498 8.02408 4.40596 7.84138 4.59485C7.65868 4.78374 7.51505 5.00683 7.41873 5.25132C7.3224 5.49582 7.27527 5.75693 7.28004 6.01967L7.31337 7.85301C7.32004 8.03967 7.17337 8.18634 6.98671 8.19301L6.18671 8.20634C6.07337 8.20634 5.98671 8.29301 5.98671 8.40634L6.00671 9.67301C6.00671 9.78634 6.09337 9.87301 6.20671 9.87301L7.00671 9.85967C7.19337 9.85967 7.34004 10.0063 7.34671 10.1863L7.40671 13.9863C7.41337 14.3597 7.11337 14.6663 6.74004 14.6663H5.20671C2.78004 14.6663 1.33337 13.2197 1.33337 10.7863V5.20634C1.33337 2.77967 2.78004 1.33301 5.20671 1.33301H10.7934C13.22 1.33301 14.6667 2.77967 14.6667 5.20634V10.793Z" fill="white"/>
</g>
</svg>
