<svg width="226" height="226" viewBox="0 0 226 226" fill="none" xmlns="http://www.w3.org/2000/svg">
<rect x="0.5" y="0.5" width="225" height="225" fill="#F1F2F3"/>
<rect x="0.5" y="0.5" width="225" height="225" stroke="black"/>
<path d="M23.4 49.608H202.6V176.616H23.4V49.608Z" fill="#24B9E7" stroke="#040404" stroke-width="7" stroke-miterlimit="10" stroke-linecap="round"/>
<path d="M144.36 120.168C157.597 120.168 168.328 109.437 168.328 96.2001C168.328 82.9629 157.597 72.2321 144.36 72.2321C131.123 72.2321 120.392 82.9629 120.392 96.2001C120.392 109.437 131.123 120.168 144.36 120.168Z" fill="#F7C35F" stroke="#040404" stroke-width="7" stroke-miterlimit="10" stroke-linecap="round"/>
<path d="M130.472 98.888L113 117.48L85.896 85.448C82.984 81.864 77.384 81.864 74.248 85.448L23.4 144.36V176.392H202.6V169L141.672 99.112C138.76 95.752 133.384 95.752 130.472 98.888Z" fill="#52A01F" stroke="#040404" stroke-width="7" stroke-miterlimit="10" stroke-linecap="round"/>
<path d="M56.6831 209.4H53.9471L49.3711 202.472V209.4H46.6351V198.168H49.3711L53.9471 205.128V198.168H56.6831V209.4ZM62.7304 209.528C61.8557 209.528 61.0664 209.341 60.3624 208.968C59.669 208.595 59.1197 208.061 58.7144 207.368C58.3197 206.675 58.1224 205.864 58.1224 204.936C58.1224 204.019 58.325 203.213 58.7304 202.52C59.1357 201.816 59.6904 201.277 60.3944 200.904C61.0984 200.531 61.8877 200.344 62.7624 200.344C63.637 200.344 64.4264 200.531 65.1304 200.904C65.8344 201.277 66.389 201.816 66.7944 202.52C67.1997 203.213 67.4024 204.019 67.4024 204.936C67.4024 205.853 67.1944 206.664 66.7784 207.368C66.373 208.061 65.813 208.595 65.0984 208.968C64.3944 209.341 63.605 209.528 62.7304 209.528ZM62.7304 207.16C63.253 207.16 63.6957 206.968 64.0584 206.584C64.4317 206.2 64.6184 205.651 64.6184 204.936C64.6184 204.221 64.437 203.672 64.0744 203.288C63.7224 202.904 63.285 202.712 62.7624 202.712C62.229 202.712 61.7864 202.904 61.4344 203.288C61.0824 203.661 60.9064 204.211 60.9064 204.936C60.9064 205.651 61.077 206.2 61.4184 206.584C61.7704 206.968 62.2077 207.16 62.7304 207.16ZM74.9805 198.168V209.4H72.2445V198.168H74.9805ZM88.3552 200.376C89.4646 200.376 90.3446 200.712 90.9952 201.384C91.6566 202.056 91.9872 202.989 91.9872 204.184V209.4H89.2672V204.552C89.2672 203.976 89.1126 203.533 88.8032 203.224C88.5046 202.904 88.0886 202.744 87.5552 202.744C87.0219 202.744 86.6006 202.904 86.2912 203.224C85.9926 203.533 85.8432 203.976 85.8432 204.552V209.4H83.1232V204.552C83.1232 203.976 82.9686 203.533 82.6592 203.224C82.3606 202.904 81.9446 202.744 81.4112 202.744C80.8779 202.744 80.4566 202.904 80.1472 203.224C79.8486 203.533 79.6992 203.976 79.6992 204.552V209.4H76.9632V200.472H79.6992V201.592C79.9766 201.219 80.3392 200.925 80.7872 200.712C81.2352 200.488 81.7419 200.376 82.3072 200.376C82.9792 200.376 83.5766 200.52 84.0992 200.808C84.6326 201.096 85.0486 201.507 85.3472 202.04C85.6566 201.549 86.0779 201.149 86.6112 200.84C87.1446 200.531 87.7259 200.376 88.3552 200.376ZM93.3567 204.92C93.3567 204.003 93.5274 203.197 93.8687 202.504C94.2207 201.811 94.6954 201.277 95.2927 200.904C95.8901 200.531 96.5567 200.344 97.2927 200.344C97.9221 200.344 98.4714 200.472 98.9407 200.728C99.4207 200.984 99.7887 201.32 100.045 201.736V200.472H102.781V209.4H100.045V208.136C99.7781 208.552 99.4047 208.888 98.9247 209.144C98.4554 209.4 97.9061 209.528 97.2767 209.528C96.5514 209.528 95.8901 209.341 95.2927 208.968C94.6954 208.584 94.2207 208.045 93.8687 207.352C93.5274 206.648 93.3567 205.837 93.3567 204.92ZM100.045 204.936C100.045 204.253 99.8527 203.715 99.4687 203.32C99.0954 202.925 98.6367 202.728 98.0927 202.728C97.5487 202.728 97.0847 202.925 96.7007 203.32C96.3274 203.704 96.1407 204.237 96.1407 204.92C96.1407 205.603 96.3274 206.147 96.7007 206.552C97.0847 206.947 97.5487 207.144 98.0927 207.144C98.6367 207.144 99.0954 206.947 99.4687 206.552C99.8527 206.157 100.045 205.619 100.045 204.936ZM108.152 200.344C108.781 200.344 109.331 200.472 109.8 200.728C110.28 200.984 110.648 201.32 110.904 201.736V200.472H113.64V209.384C113.64 210.205 113.475 210.947 113.144 211.608C112.824 212.28 112.328 212.813 111.656 213.208C110.995 213.603 110.168 213.8 109.176 213.8C107.853 213.8 106.781 213.485 105.96 212.856C105.139 212.237 104.669 211.395 104.552 210.328H107.256C107.341 210.669 107.544 210.936 107.864 211.128C108.184 211.331 108.579 211.432 109.048 211.432C109.613 211.432 110.061 211.267 110.392 210.936C110.733 210.616 110.904 210.099 110.904 209.384V208.12C110.637 208.536 110.269 208.877 109.8 209.144C109.331 209.4 108.781 209.528 108.152 209.528C107.416 209.528 106.749 209.341 106.152 208.968C105.555 208.584 105.08 208.045 104.728 207.352C104.387 206.648 104.216 205.837 104.216 204.92C104.216 204.003 104.387 203.197 104.728 202.504C105.08 201.811 105.555 201.277 106.152 200.904C106.749 200.531 107.416 200.344 108.152 200.344ZM110.904 204.936C110.904 204.253 110.712 203.715 110.328 203.32C109.955 202.925 109.496 202.728 108.952 202.728C108.408 202.728 107.944 202.925 107.56 203.32C107.187 203.704 107 204.237 107 204.92C107 205.603 107.187 206.147 107.56 206.552C107.944 206.947 108.408 207.144 108.952 207.144C109.496 207.144 109.955 206.947 110.328 206.552C110.712 206.157 110.904 205.619 110.904 204.936ZM124.035 204.792C124.035 205.048 124.019 205.315 123.987 205.592H117.795C117.838 206.147 118.014 206.573 118.323 206.872C118.643 207.16 119.033 207.304 119.491 207.304C120.174 207.304 120.649 207.016 120.915 206.44H123.827C123.678 207.027 123.406 207.555 123.011 208.024C122.627 208.493 122.142 208.861 121.555 209.128C120.969 209.395 120.313 209.528 119.587 209.528C118.713 209.528 117.934 209.341 117.251 208.968C116.569 208.595 116.035 208.061 115.651 207.368C115.267 206.675 115.075 205.864 115.075 204.936C115.075 204.008 115.262 203.197 115.635 202.504C116.019 201.811 116.553 201.277 117.235 200.904C117.918 200.531 118.702 200.344 119.587 200.344C120.451 200.344 121.219 200.525 121.891 200.888C122.563 201.251 123.086 201.768 123.459 202.44C123.843 203.112 124.035 203.896 124.035 204.792ZM121.235 204.072C121.235 203.603 121.075 203.229 120.755 202.952C120.435 202.675 120.035 202.536 119.555 202.536C119.097 202.536 118.707 202.669 118.387 202.936C118.078 203.203 117.886 203.581 117.811 204.072H121.235ZM136.181 198.168V200.36H131.605V202.728H135.029V204.856H131.605V209.4H128.869V198.168H136.181ZM141.683 209.528C140.809 209.528 140.019 209.341 139.315 208.968C138.622 208.595 138.073 208.061 137.667 207.368C137.273 206.675 137.075 205.864 137.075 204.936C137.075 204.019 137.278 203.213 137.683 202.52C138.089 201.816 138.643 201.277 139.347 200.904C140.051 200.531 140.841 200.344 141.715 200.344C142.59 200.344 143.379 200.531 144.083 200.904C144.787 201.277 145.342 201.816 145.747 202.52C146.153 203.213 146.355 204.019 146.355 204.936C146.355 205.853 146.147 206.664 145.731 207.368C145.326 208.061 144.766 208.595 144.051 208.968C143.347 209.341 142.558 209.528 141.683 209.528ZM141.683 207.16C142.206 207.16 142.649 206.968 143.011 206.584C143.385 206.2 143.571 205.651 143.571 204.936C143.571 204.221 143.39 203.672 143.027 203.288C142.675 202.904 142.238 202.712 141.715 202.712C141.182 202.712 140.739 202.904 140.387 203.288C140.035 203.661 139.859 204.211 139.859 204.936C139.859 205.651 140.03 206.2 140.371 206.584C140.723 206.968 141.161 207.16 141.683 207.16ZM156.623 200.472V209.4H153.887V208.184C153.61 208.579 153.231 208.899 152.751 209.144C152.282 209.379 151.759 209.496 151.183 209.496C150.5 209.496 149.898 209.347 149.375 209.048C148.852 208.739 148.447 208.296 148.159 207.72C147.871 207.144 147.727 206.467 147.727 205.688V200.472H150.447V205.32C150.447 205.917 150.602 206.381 150.911 206.712C151.22 207.043 151.636 207.208 152.159 207.208C152.692 207.208 153.114 207.043 153.423 206.712C153.732 206.381 153.887 205.917 153.887 205.32V200.472H156.623ZM164.028 200.376C165.074 200.376 165.906 200.717 166.524 201.4C167.154 202.072 167.468 203 167.468 204.184V209.4H164.748V204.552C164.748 203.955 164.594 203.491 164.284 203.16C163.975 202.829 163.559 202.664 163.036 202.664C162.514 202.664 162.098 202.829 161.788 203.16C161.479 203.491 161.324 203.955 161.324 204.552V209.4H158.588V200.472H161.324V201.656C161.602 201.261 161.975 200.952 162.444 200.728C162.914 200.493 163.442 200.376 164.028 200.376ZM168.825 204.92C168.825 204.003 168.996 203.197 169.337 202.504C169.689 201.811 170.164 201.277 170.761 200.904C171.359 200.531 172.025 200.344 172.761 200.344C173.348 200.344 173.881 200.467 174.361 200.712C174.852 200.957 175.236 201.288 175.513 201.704V197.56H178.249V209.4H175.513V208.12C175.257 208.547 174.889 208.888 174.409 209.144C173.94 209.4 173.391 209.528 172.761 209.528C172.025 209.528 171.359 209.341 170.761 208.968C170.164 208.584 169.689 208.045 169.337 207.352C168.996 206.648 168.825 205.837 168.825 204.92ZM175.513 204.936C175.513 204.253 175.321 203.715 174.937 203.32C174.564 202.925 174.105 202.728 173.561 202.728C173.017 202.728 172.553 202.925 172.169 203.32C171.796 203.704 171.609 204.237 171.609 204.92C171.609 205.603 171.796 206.147 172.169 206.552C172.553 206.947 173.017 207.144 173.561 207.144C174.105 207.144 174.564 206.947 174.937 206.552C175.321 206.157 175.513 205.619 175.513 204.936Z" fill="#818181"/>
</svg>
