<svg width="16" height="16" viewBox="0 0 16 16" fill="none" xmlns="http://www.w3.org/2000/svg">
<g id="ph:pinterest-logo-bold">
<path id="Vector" d="M15.5833 6.9265C15.5833 8.38255 14.9826 9.71705 13.8913 10.6826C12.8674 11.5889 11.4768 12.109 10.0761 12.109C8.95652 12.109 8.13551 11.8512 7.54783 11.5346L6.86449 14.0062C6.8393 14.1017 6.79212 14.192 6.72568 14.2719C6.65925 14.3517 6.57488 14.4196 6.47745 14.4715C6.38002 14.5234 6.27147 14.5584 6.15807 14.5744C6.04467 14.5904 5.92867 14.587 5.81679 14.5646C5.70491 14.5422 5.59936 14.5011 5.50624 14.4437C5.41313 14.3863 5.3343 14.3138 5.27432 14.2303C5.21433 14.1468 5.17438 14.0541 5.15677 13.9574C5.13917 13.8606 5.14425 13.7619 5.17174 13.6669L7.49058 5.2761C7.51578 5.18062 7.56295 5.09033 7.62939 5.01047C7.69582 4.93061 7.78019 4.86276 7.87762 4.81083C7.97505 4.75891 8.08361 4.72394 8.19701 4.70796C8.3104 4.69198 8.4264 4.6953 8.53828 4.71773C8.65017 4.74016 8.75572 4.78125 8.84883 4.83863C8.94194 4.89601 9.02077 4.96853 9.08076 5.05201C9.14074 5.13549 9.18069 5.22827 9.1983 5.32498C9.21591 5.42169 9.21082 5.52041 9.18333 5.61544L7.9913 9.92991C8.2442 10.1878 8.8558 10.6283 10.0761 10.6283C11.9283 10.6283 13.8442 9.24322 13.8442 6.9265C13.8438 6.28317 13.6697 5.64854 13.3352 5.07167C13.0008 4.4948 12.515 3.99113 11.9154 3.59962C11.3159 3.20812 10.6186 2.93925 9.8775 2.8138C9.13641 2.68836 8.37137 2.7097 7.64152 2.87618C6.91166 3.04266 6.23655 3.34982 5.66838 3.7739C5.10021 4.19799 4.65419 4.72765 4.36482 5.32192C4.07544 5.9162 3.95046 6.55918 3.99954 7.20114C4.04861 7.84311 4.27042 8.46687 4.64783 9.0242C4.75435 9.19365 4.7793 9.39173 4.71741 9.57656C4.65552 9.76139 4.51164 9.91848 4.31618 10.0146C4.12072 10.1108 3.88901 10.1384 3.67003 10.0918C3.45105 10.0451 3.26197 9.92777 3.14275 9.76456C2.6316 9.01055 2.33101 8.16654 2.26423 7.2978C2.19745 6.42907 2.36628 5.5589 2.75764 4.7546C3.149 3.9503 3.75242 3.23342 4.52121 2.65943C5.29001 2.08543 6.20358 1.66969 7.19126 1.44437C8.17894 1.21905 9.21426 1.19019 10.2171 1.36002C11.22 1.52985 12.1636 1.89381 12.9748 2.42376C13.7861 2.95371 14.4433 3.63544 14.8956 4.41622C15.3479 5.197 15.5832 6.05591 15.5833 6.9265Z" fill="white"/>
</g>
</svg>
