<svg width="16" height="16" viewBox="0 0 16 16" fill="none" xmlns="http://www.w3.org/2000/svg">
<path d="M8 0C3.58153 0 0 3.58153 0 8C0 12.4185 3.58153 16 8 16C12.4185 16 16 12.4185 16 8C16 3.58153 12.4185 0 8 0ZM8 14.75C4.27197 14.75 1.25 11.728 1.25 8C1.25 4.27197 4.27197 1.25 8 1.25C11.728 1.25 14.75 4.27197 14.75 8C14.75 11.728 11.728 14.75 8 14.75Z" fill="#47A15E" stroke="#47A15E" stroke-width="1.5625"/>
<path d="M10.2227 11.999C10.4009 11.9995 12 10.8169 12 10.666C12 10.5152 10.2104 9.38772 10.0557 9.38772C9.90088 9.38772 9.38134 10.0108 9.24122 10.0801C9.10059 10.1494 8.22559 10.1245 7.2505 9.14944C6.27491 8.17481 5.94191 7.05228 5.94191 6.876C5.94191 6.69972 6.75538 6.15531 6.77784 6.02738C6.80031 5.89944 5.70556 4 5.52784 4C5.35013 4 4 5.64062 4 5.77734C4 5.91406 4.12353 7.67284 6.35059 9.89941C8.57766 12.126 10.0444 11.9981 10.2227 11.999Z" fill="#47A15E" stroke="#47A15E" stroke-width="1.5625"/>
</svg>
