<svg width="23" height="22" viewBox="0 0 23 22" fill="none" xmlns="http://www.w3.org/2000/svg">
<g id="upload-window-svgrepo-com 1">
<g clip-path="url(#clip0_49_313)">
<rect x="0.233704" width="22" height="22" rx="4" fill="#F7C35F"/>
<path id="Vector" d="M0.233704 17.886C0.233704 19.03 0.637037 19.998 1.4437 20.79C2.25037 21.582 3.2257 21.9853 4.3697 22H7.1197V19.25H4.3697C3.98837 19.25 3.65837 19.118 3.3797 18.854C3.10104 18.59 2.96904 18.2673 2.9837 17.886V8.25H19.4837V17.886C19.4837 18.2673 19.3517 18.59 19.0877 18.854C18.8237 19.118 18.501 19.25 18.1197 19.25H15.3697V22H18.1197C19.249 22 20.217 21.5967 21.0237 20.79C21.8304 19.9833 22.2337 19.0153 22.2337 17.886V4.136C22.2337 2.992 21.8304 2.01667 21.0237 1.21C20.217 0.403333 19.249 0 18.1197 0H4.3697C3.2257 0 2.25037 0.403333 1.4437 1.21C0.637037 2.01667 0.233704 2.992 0.233704 4.136L0.233704 17.886ZM2.9837 6.886V4.136C2.9837 3.75467 3.1157 3.432 3.3797 3.168C3.6437 2.904 3.9737 2.76467 4.3697 2.75H18.1197C18.4864 2.75 18.809 2.88933 19.0877 3.168C19.3664 3.44667 19.4984 3.76933 19.4837 4.136V6.886H2.9837ZM4.3697 5.5H5.7337V4.136H4.3697V5.5ZM7.1197 16.5H9.8697V22H12.6197V16.5H15.3697L11.2337 11L7.1197 16.5ZM7.1197 5.5H8.4837V4.136H7.1197V5.5ZM9.8697 5.5H18.1197V4.136H9.8697V5.5Z" fill="black"/>
</g>
</g>
<defs>
<clipPath id="clip0_49_313">
<rect x="0.233704" width="22" height="22" rx="4" fill="white"/>
</clipPath>
</defs>
</svg>
